<svg class="img-fluid" id="outputsvg" xmlns="http://www.w3.org/2000/svg" style="transform: matrix(1, 0, 0, 1, 0, 0); transform-origin: 50% 50%; cursor: move; max-height: 414.76px; transition: transform 200ms ease-in-out 0s;" width="463" height="201" viewBox="0 0 4630 2010"><g id="l1DzfemK0I3km056k4IQmOw" fill="rgb(206,22,21)" style="transform: none;"><g style="transform: none;"><path id="pePwlDcLf" d="M1139 1334 l-24 -26 -3 -347 c-2 -279 0 -350 10 -359 8 -6 40 -25 73 -42 69 -37 141 -47 203 -31 38 11 48 20 89 84 68 106 76 108 126 38 29 -40 51 -57 122 -91 84 -41 90 -42 154 -36 36 4 72 13 80 20 10 11 13 74 12 315 -1 165 1 301 3 301 13 0 47 -87 91 -235 26 -88 58 -183 70 -210 12 -28 30 -73 39 -102 26 -78 41 -87 156 -91 58 -3 112 0 132 7 82 27 153 144 208 343 17 62 42 136 55 163 34 72 97 279 90 297 -8 21 -36 28 -120 28 -100 0 -185 -22 -211 -55 -41 -52 -138 -49 -170 4 -10 16 -28 34 -41 40 -47 22 -257 6 -290 -21 -7 -6 -13 -28 -13 -49 0 -28 -4 -39 -15 -39 -13 0 -15 -40 -15 -303 0 -246 -3 -307 -14 -323 -12 -16 -27 -19 -99 -19 -103 0 -107 3 -184 132 -60 100 -75 118 -97 110 -8 -3 -44 -55 -80 -115 -36 -61 -73 -113 -83 -116 -37 -14 -131 -18 -166 -7 -29 10 -37 19 -42 44 -3 18 -5 168 -3 334 3 260 5 305 19 318 10 10 41 18 90 21 40 3 75 7 78 9 2 2 1 11 -2 20 -5 12 -25 15 -105 15 -93 0 -100 -1 -123 -26z m1112 -40 c11 -10 19 -23 19 -30 0 -29 43 -44 128 -44 81 0 85 1 113 31 16 17 29 35 29 40 0 16 65 27 139 23 40 -3 77 -7 82 -10 14 -8 11 -62 -5 -93 -8 -15 -39 -106 -70 -202 -30 -96 -64 -199 -76 -229 -13 -30 -32 -80 -44 -110 -18 -46 -28 -57 -56 -67 -45 -15 -185 -15 -230 0 -30 11 -38 20 -63 87 -16 41 -37 100 -47 130 -59 178 -81 245 -114 335 -42 118 -45 142 -13 154 38 15 187 4 208 -15z"></path><path id="p14DuMvrfV" d="M2360 1004 c-11 -12 -10 -25 4 -70 19 -59 38 -69 54 -26 21 51 24 82 12 97 -16 20 -54 19 -70 -1z"></path><path id="pA3QP62m8" d="M1673 1345 c-63 -44 -46 -285 19 -285 16 0 18 11 18 109 0 86 3 113 16 125 15 16 23 17 114 21 57 2 76 11 59 31 -17 20 -196 20 -226 -1z"></path><path id="pgqp2PviP" d="M3363 1313 c-9 -3 -13 -34 -13 -105 l0 -100 -33 29 c-46 41 -111 57 -204 51 -88 -5 -139 -27 -190 -80 -41 -43 -63 -96 -63 -153 l0 -45 38 0 c46 0 99 -26 125 -62 14 -19 20 -43 20 -83 0 -98 -48 -133 -185 -134 -38 -1 -68 -5 -68 -11 0 -6 145 -10 413 -11 681 -1 827 1 827 8 0 5 -27 9 -60 11 l-60 3 0 339 0 340 -90 0 -90 0 0 -340 0 -340 -100 0 -100 0 -2 342 -3 342 -75 2 c-41 0 -81 -1 -87 -3z m-69 -192 c52 -33 56 -51 56 -281 l0 -210 -117 0 -118 0 42 25 c90 54 96 194 9 250 -12 8 -46 21 -74 27 -58 14 -61 21 -41 93 15 54 45 94 83 111 40 19 117 11 160 -15z"></path><path id="pZXrUY54G" d="M1425 1216 c-8 -41 -2 -152 8 -162 4 -4 26 14 50 39 34 37 50 47 75 47 21 0 32 5 32 15 0 19 -31 35 -70 35 -22 0 -39 9 -60 31 l-29 32 -6 -37z"></path></g></g><g id="l6sKUdL1GDpOsSVO3EHaFCp" fill="rgb(255,255,255)" style="transform: none;"><g style="transform: none;"><path id="pIyVF6R4t" d="M1198 1957 c-10 -8 -18 -22 -18 -30 0 -29 106 -73 220 -91 8 -1 24 -6 35 -10 74 -29 105 -39 145 -46 70 -14 141 -30 195 -45 28 -8 97 -23 155 -34 58 -11 143 -27 190 -36 46 -9 185 -20 307 -26 205 -10 225 -9 252 7 24 14 33 15 44 5 11 -8 27 -9 61 -1 25 5 81 11 125 12 83 1 120 11 88 24 -9 3 -26 4 -36 1 -10 -2 -57 2 -103 9 -47 7 -98 13 -114 13 -16 0 -83 9 -149 20 -201 33 -247 40 -335 51 -47 6 -132 18 -190 26 -244 34 -263 36 -271 23 -6 -10 -12 -7 -26 9 -18 22 -86 41 -235 66 -36 6 -70 14 -74 19 -4 4 -19 7 -33 7 -15 0 -35 6 -46 14 -30 21 -166 30 -187 13z"></path><path id="p19sRTJzhr" d="M1206 1726 c4 -11 -11 -16 -72 -21 l-78 -8 39 -33 c22 -18 36 -36 33 -40 -4 -3 -37 -1 -73 6 -82 16 -165 9 -228 -19 -59 -26 -133 -28 -159 -4 -17 15 -21 15 -51 1 -29 -13 -43 -14 -132 0 -59 8 -128 26 -168 43 -82 35 -90 36 -116 3 -47 -59 -34 -151 25 -186 39 -23 38 -21 22 -49 -12 -19 -9 -24 28 -57 23 -21 54 -61 69 -90 17 -35 60 -87 122 -148 53 -52 94 -94 92 -95 -71 -15 -191 7 -302 57 -87 39 -189 59 -219 43 -36 -19 -20 -47 53 -96 40 -26 97 -65 128 -86 59 -39 135 -77 156 -77 7 0 18 -7 26 -16 12 -14 8 -15 -37 -9 l-49 8 25 -27 c14 -15 56 -43 94 -61 l69 -33 27 20 c15 11 38 18 51 16 20 -2 24 -8 22 -32 -3 -40 11 -62 44 -71 16 -3 67 -22 115 -41 187 -74 414 -146 483 -153 39 -3 80 -12 91 -18 36 -21 107 -40 149 -42 57 -1 295 -81 295 -99 0 -8 -9 -25 -20 -39 -45 -58 -21 -81 90 -90 73 -5 85 -4 96 12 12 17 15 16 46 -11 34 -30 36 -30 283 -74 327 -57 374 -63 558 -66 104 -2 198 -6 209 -10 11 -3 31 0 45 7 19 10 31 10 57 1 23 -8 41 -9 57 -3 13 5 18 10 11 10 -7 1 -17 12 -21 25 -8 18 -19 25 -58 30 -26 4 -55 7 -63 7 -8 0 -39 5 -69 11 -29 5 -90 14 -135 19 -163 19 -191 24 -178 32 19 13 75 11 117 -3 20 -7 46 -9 58 -6 12 3 92 -2 177 -11 85 -9 214 -17 285 -17 77 -1 141 -6 157 -13 33 -15 236 -15 328 -1 82 13 245 53 290 71 19 8 62 18 95 21 110 12 205 30 205 38 0 4 -48 8 -107 8 -115 0 -231 21 -249 45 -7 9 -33 14 -75 16 -75 2 -280 36 -293 49 -5 5 12 11 38 14 25 3 67 9 92 12 26 3 64 15 85 25 48 26 93 27 118 5 11 -10 25 -15 31 -11 6 4 17 2 25 -5 10 -8 35 -3 105 25 51 19 98 35 104 35 20 0 48 36 55 72 7 33 7 33 63 33 53 0 60 3 98 40 22 21 40 47 40 57 0 9 9 22 20 28 30 16 25 26 -25 56 -50 29 -68 54 -59 79 4 9 7 25 8 34 2 31 70 81 110 81 20 0 36 4 36 8 0 4 -29 25 -64 45 -35 21 -70 44 -76 52 -7 8 -18 15 -26 15 -7 0 -25 11 -40 25 -80 74 -198 122 -370 150 -55 8 -107 17 -116 19 -17 4 -18 -16 -18 -314 l0 -319 60 -3 c33 -2 59 -6 58 -11 -3 -7 -145 -9 -825 -8 -268 1 -413 5 -413 11 0 6 30 10 68 11 137 1 185 36 185 134 0 40 -6 64 -20 83 -26 36 -79 62 -125 62 l-38 0 0 45 c0 57 22 110 63 153 51 53 102 75 190 80 93 6 158 -10 204 -51 l33 -29 0 100 c0 116 -5 111 105 108 l70 -1 3 -343 2 -342 100 0 100 0 0 295 0 295 -26 6 c-14 4 -52 3 -85 0 -80 -9 -75 6 7 22 37 7 71 15 76 18 15 9 -13 34 -38 34 -12 0 -26 5 -29 10 -3 6 1 10 9 10 9 0 16 4 16 9 0 9 -71 21 -129 21 -20 0 -47 3 -60 7 -21 5 -20 7 15 21 22 8 53 16 69 17 74 7 194 28 240 41 28 9 55 14 60 13 16 -4 165 32 171 42 8 14 -250 2 -671 -30 -336 -26 -476 -32 -516 -25 -48 8 -66 10 -179 18 -41 3 -106 10 -145 15 -38 5 -126 10 -193 10 -68 1 -131 5 -140 10 -10 5 -66 16 -127 25 -60 9 -173 32 -250 51 -77 19 -194 46 -260 61 -66 16 -127 34 -135 40 -9 7 -36 17 -61 23 -25 6 -67 20 -93 31 -57 24 -57 24 -50 6z m161 -381 c3 -9 4 -18 2 -20 -3 -2 -38 -6 -78 -9 -49 -3 -80 -11 -90 -21 -14 -13 -16 -58 -19 -318 -2 -166 0 -316 3 -334 5 -25 13 -34 42 -44 35 -11 129 -7 166 7 10 3 47 55 83 116 36 60 72 112 80 115 22 8 37 -10 97 -110 77 -129 81 -132 184 -132 72 0 87 3 99 19 11 16 14 77 14 323 0 263 2 303 15 303 11 0 15 11 15 39 0 21 6 43 13 49 33 27 243 43 290 21 13 -6 31 -24 41 -40 32 -53 129 -56 170 -4 26 33 111 55 211 55 84 0 112 -7 120 -28 7 -18 -56 -225 -90 -297 -13 -27 -38 -101 -55 -163 -55 -199 -126 -316 -208 -343 -20 -7 -74 -10 -132 -7 -115 4 -130 13 -156 91 -9 29 -27 74 -39 102 -12 27 -44 122 -70 210 -44 148 -78 235 -91 235 -2 0 -4 -136 -3 -301 1 -241 -2 -304 -12 -315 -8 -7 -44 -16 -80 -20 -64 -6 -70 -5 -154 36 -71 34 -93 51 -122 91 -50 70 -58 68 -126 -38 -41 -64 -51 -73 -89 -84 -62 -16 -134 -6 -203 31 -33 17 -65 36 -73 42 -10 9 -12 80 -10 359 l3 347 24 26 c23 25 30 26 123 26 80 0 100 -3 105 -15z m532 1 c17 -20 -2 -29 -59 -31 -91 -4 -99 -5 -114 -21 -13 -12 -16 -39 -16 -125 0 -98 -2 -109 -18 -109 -65 0 -82 241 -19 285 30 21 209 21 226 1z m-379 -156 c39 0 70 -16 70 -35 0 -10 -11 -15 -32 -15 -25 0 -41 -10 -75 -47 -24 -25 -46 -43 -50 -39 -10 10 -16 121 -8 162 l6 37 29 -32 c21 -22 38 -31 60 -31z m1116 -1005 c18 -14 18 -14 -11 -15 -39 0 -75 10 -75 21 0 15 65 10 86 -6z"></path><path id="p2uXq09xQ" d="M2043 1309 c-32 -12 -29 -36 13 -154 33 -90 55 -157 114 -335 10 -30 31 -89 47 -130 25 -67 33 -76 63 -87 45 -15 185 -15 230 0 28 10 38 21 56 67 12 30 31 80 44 110 12 30 46 133 76 229 31 96 62 187 70 202 16 31 19 85 5 93 -5 3 -42 7 -82 10 -74 4 -139 -7 -139 -23 0 -5 -13 -23 -29 -40 -28 -30 -32 -31 -113 -31 -85 0 -128 15 -128 44 0 31 -37 46 -121 50 -46 2 -94 0 -106 -5z m387 -304 c12 -15 9 -46 -12 -97 -16 -43 -35 -33 -54 26 -14 45 -15 58 -4 70 16 20 54 21 70 1z"></path><path id="pmUyQuqAI" d="M10 1165 c-7 -9 -10 -18 -7 -21 6 -7 47 18 47 28 0 14 -27 9 -40 -7z"></path><path id="p5Kb86Y89" d="M3134 1136 c-38 -17 -68 -57 -83 -111 -20 -72 -17 -79 41 -93 28 -6 62 -19 74 -27 87 -56 81 -196 -9 -250 l-42 -25 118 0 117 0 0 210 c0 138 -4 218 -12 235 -26 57 -139 91 -204 61z"></path><path id="pVJiseF0L" d="M1013 430 c-49 -20 -17 -57 67 -81 25 -7 49 -16 55 -21 16 -14 65 -9 65 7 0 22 16 18 42 -9 18 -18 50 -30 138 -49 274 -60 277 -60 310 -15 33 45 19 60 -76 79 -43 9 -126 27 -184 40 -58 13 -123 23 -145 22 -22 -2 -49 2 -60 6 -62 28 -169 38 -212 21z"></path><path id="p16voWU6k5" d="M3333 76 c-27 -15 2 -22 74 -19 38 1 72 3 78 3 5 0 5 3 0 9 -13 13 -133 18 -152 7z"></path><path id="p1EZaerjiA" d="M3260 70 c0 -5 7 -10 15 -10 8 0 15 5 15 10 0 6 -7 10 -15 10 -8 0 -15 -4 -15 -10z"></path></g></g></svg>